<svg width="32" height="26" viewBox="0 0 32 26" fill="none" xmlns="http://www.w3.org/2000/svg">
<path d="M11.1133 9.44922C10.1113 9.44922 9.2957 10.2684 9.2957 11.2773C9.2957 12.2863 10.1113 13.1055 11.1133 13.1055C12.1152 13.1055 12.9309 12.2863 12.9309 11.2773C12.9309 10.2684 12.1152 9.44922 11.1133 9.44922ZM30.625 0.625H1.375C0.752734 0.625 0.25 1.12773 0.25 1.75V24.25C0.25 24.8723 0.752734 25.375 1.375 25.375H30.625C31.2473 25.375 31.75 24.8723 31.75 24.25V1.75C31.75 1.12773 31.2473 0.625 30.625 0.625ZM19.375 9.76562C19.375 9.61094 19.4102 9.48438 19.4559 9.48438H23.7941C23.8398 9.48438 23.875 9.61094 23.875 9.76562V11.4531C23.875 11.6078 23.8398 11.7344 23.7941 11.7344H19.4559C19.4102 11.7344 19.375 11.6078 19.375 11.4531V9.76562ZM16.3516 18.6602H14.8082C14.6605 18.6602 14.541 18.5441 14.5305 18.3965C14.3969 16.6211 12.9133 15.2148 11.1133 15.2148C9.31328 15.2148 7.82969 16.6211 7.69609 18.3965C7.68555 18.5441 7.56602 18.6602 7.41836 18.6602H5.875C5.83685 18.6602 5.79909 18.6525 5.76402 18.6375C5.72895 18.6225 5.69729 18.6005 5.67098 18.5729C5.64468 18.5452 5.62426 18.5126 5.61098 18.4768C5.59771 18.441 5.59184 18.4029 5.59375 18.3648C5.69219 16.491 6.71875 14.8598 8.21641 13.9316C7.55595 13.2056 7.19102 12.2588 7.19336 11.2773C7.19336 9.10117 8.94766 7.33984 11.1098 7.33984C13.2719 7.33984 15.0262 9.10117 15.0262 11.2773C15.0262 12.3004 14.6395 13.2285 14.0031 13.9316C15.5043 14.8633 16.5273 16.491 16.6258 18.3648C16.6398 18.5266 16.5133 18.6602 16.3516 18.6602ZM26.1566 16.7969H19.6246C19.4875 16.7969 19.375 16.6703 19.375 16.5156V14.8281C19.375 14.6734 19.4875 14.5469 19.6246 14.5469H26.1531C26.2902 14.5469 26.4027 14.6734 26.4027 14.8281V16.5156H26.4062C26.4062 16.6703 26.2938 16.7969 26.1566 16.7969Z" fill="black" fill-opacity="0.85"/>
</svg>
