<svg width="14" height="14" viewBox="0 0 14 14" fill="none" xmlns="http://www.w3.org/2000/svg">
<g clip-path="url(#clip0_181147_7596)">
<rect width="14" height="14" fill="white" fill-opacity="0.01"/>
<g clip-path="url(#clip1_181147_7596)">
<path d="M12.749 0.75H1.24902C0.972461 0.75 0.749023 0.973438 0.749023 1.25V12.75C0.749023 13.0266 0.972461 13.25 1.24902 13.25H12.749C13.0256 13.25 13.249 13.0266 13.249 12.75V1.25C13.249 0.973438 13.0256 0.75 12.749 0.75ZM6.68652 9.625C6.68652 9.69375 6.63027 9.75 6.56152 9.75H3.68652C3.61777 9.75 3.56152 9.69375 3.56152 9.625V8.875C3.56152 8.80625 3.61777 8.75 3.68652 8.75H6.56152C6.63027 8.75 6.68652 8.80625 6.68652 8.875V9.625ZM8.68652 7.375C8.68652 7.44375 8.63027 7.5 8.56152 7.5H3.68652C3.61777 7.5 3.56152 7.44375 3.56152 7.375V6.625C3.56152 6.55625 3.61777 6.5 3.68652 6.5H8.56152C8.63027 6.5 8.68652 6.55625 8.68652 6.625V7.375ZM10.6865 5.125C10.6865 5.19375 10.6303 5.25 10.5615 5.25H3.68652C3.61777 5.25 3.56152 5.19375 3.56152 5.125V4.375C3.56152 4.30625 3.61777 4.25 3.68652 4.25H10.5615C10.6303 4.25 10.6865 4.30625 10.6865 4.375V5.125Z" fill="black" fill-opacity="0.45"/>
</g>
</g>
<defs>
<clipPath id="clip0_181147_7596">
<rect width="14" height="14" fill="white"/>
</clipPath>
<clipPath id="clip1_181147_7596">
<rect width="14" height="14" fill="white"/>
</clipPath>
</defs>
</svg>
